<?xml version="1.0" encoding="UTF-8" standalone="no"?>
<svg
   viewBox="0 0 16 16"
   version="1.1"
   id="svg6"
   sodipodi:docname="icon.svg"
   inkscape:version="1.1.1 (26b7af14f2, 2022-01-19)"
   xmlns:inkscape="http://www.inkscape.org/namespaces/inkscape"
   xmlns:sodipodi="http://sodipodi.sourceforge.net/DTD/sodipodi-0.dtd"
   xmlns:xlink="http://www.w3.org/1999/xlink"
   xmlns="http://www.w3.org/2000/svg"
   xmlns:svg="http://www.w3.org/2000/svg"
   xmlns:rdf="http://www.w3.org/1999/02/22-rdf-syntax-ns#"
   xmlns:cc="http://creativecommons.org/ns#"
   xmlns:dc="http://purl.org/dc/elements/1.1/">
  <title
     id="title829">ClipboardInspector Icon</title>
  <sodipodi:namedview
     id="namedview8"
     pagecolor="#505050"
     bordercolor="#eeeeee"
     borderopacity="1"
     inkscape:pageshadow="0"
     inkscape:pageopacity="0"
     inkscape:pagecheckerboard="0"
     showgrid="false"
     inkscape:zoom="44.9375"
     inkscape:cx="7.821975"
     inkscape:cy="7.4436718"
     inkscape:window-width="1920"
     inkscape:window-height="1168"
     inkscape:window-x="0"
     inkscape:window-y="32"
     inkscape:window-maximized="1"
     inkscape:current-layer="svg6" />
  <defs
     id="defs3051">
    <linearGradient
       inkscape:collect="always"
       id="linearGradient2087">
      <stop
         style="stop-color:#ff00ff;stop-opacity:1;"
         offset="0"
         id="stop2083" />
      <stop
         style="stop-color:#000000;stop-opacity:0.98898542"
         offset="1"
         id="stop2085" />
    </linearGradient>
    <inkscape:path-effect
       effect="fillet_chamfer"
       id="path-effect1017"
       is_visible="true"
       lpeversion="1"
       satellites_param="F,0,0,1,0,0.5,0,1 @ F,0,0,1,0,0.5,0,1 @ F,0,0,1,0,0.70109989,0,1 @ F,0,0,1,0,0.64433838,0,1 @ F,0,0,1,0,0.5,0,1 @ F,0,0,1,0,0.5,0,1 @ F,0,0,1,0,0.25384096,0,1 @ F,0,0,1,0,0.66510585,0,1 @ F,0,0,1,0,0.5,0,1 @ F,0,0,1,0,0.5,0,1 @ F,0,0,1,0,0.75230626,0,1 @ F,0,0,1,0,0.5,0,1 @ F,0,0,1,0,0.5,0,1 | F,0,0,1,0,0,0,1 @ F,0,0,1,0,0.5,0,1 @ F,0,0,1,0,0.5,0,1 @ F,0,0,1,0,0.5,0,1 @ F,0,0,1,0,0.5,0,1 @ F,0,0,1,0,0,0,1 @ F,0,0,1,0,0.5,0,1 @ F,0,0,1,0,0.5,0,1 @ F,0,0,1,0,0.5,0,1 @ F,0,0,1,0,0.5,0,1 @ F,0,0,1,0,0.5,0,1 @ F,0,0,1,0,0.5,0,1 @ F,0,0,1,0,0.5,0,1 @ F,0,0,1,0,0.5,0,1 | F,0,0,1,0,0.33642646,0,1 @ F,0,0,1,0,0.33642646,0,1 @ F,0,0,1,0,0.33300781,0,1 @ F,0,0,1,0,0.33642646,0,1 | F,0,0,1,0,0.29303938,0,1 @ F,0,0,1,0,0.31873968,0,1 @ F,0,0,1,0,0.30986912,0,1 @ F,0,0,1,0,0.3393317,0,1"
       unit="px"
       method="auto"
       mode="F"
       radius="0.5"
       chamfer_steps="1"
       flexible="false"
       use_knot_distance="true"
       apply_no_radius="true"
       apply_with_radius="true"
       only_selected="false"
       hide_knots="false" />
    <style
       type="text/css"
       id="current-color-scheme">
      .ColorScheme-Text {
        color:#eff0f1;
      }
      </style>
    <linearGradient
       inkscape:collect="always"
       xlink:href="#linearGradient2087"
       id="linearGradient2093"
       x1="3.1192358"
       y1="7.9752927"
       x2="18.427786"
       y2="7.9752927"
       gradientUnits="userSpaceOnUse" />
  </defs>
  <path
     style="fill:url(#linearGradient2093);fill-opacity:1;stroke:none"
     d="M 5,2.5 A 0.5,0.5 135 0 1 4.5,3 H 3.7010999 A 0.70109989,0.70109989 135 0 0 3,3.7010999 V 13.355662 A 0.64433838,0.64433838 45 0 0 3.6443384,14 L 6.5,14 h 1 4.246159 a 30.253834,30.253834 179.51928 0 0 0.507646,-0.0043 l 0.08065,-0.0014 A 0.67672737,0.67672737 134.53478 0 0 12.999828,13.318121 1512.0282,1512.0282 90.012055 0 0 13,12.5 V 9.5 3.7523063 A 0.75230626,0.75230626 45 0 0 12.247694,3 H 11.5 A 0.5,0.5 45 0 1 11,2.5 0.5,0.5 45 0 0 10.5,2 h -5 A 0.5,0.5 135 0 0 5,2.5 Z M 4,4 H 4.5 A 0.5,0.5 45 0 1 5,4.5 0.5,0.5 45 0 0 5.5,5 h 5 A 0.5,0.5 135 0 0 11,4.5 0.5,0.5 135 0 1 11.5,4 H 12 v 1.5 6 a 296.65933,296.65933 89.903432 0 0 0.0017,0.999997 0.49052375,0.49052375 135.98076 0 1 -0.498378,0.481602 l -3.0033139,0.01578 A 190.38986,190.38986 179.84953 0 1 7.5,13 h -3 A 0.5,0.5 45 0 1 4,12.5 v -6 z m 1,3.3364265 v 0.327147 A 0.33642646,0.33642646 45 0 0 5.3364265,8 H 9.6669922 A 0.33300781,0.33300781 135 0 0 10,7.6669922 V 7.3364265 A 0.33642646,0.33642646 45 0 0 9.6635735,7 H 5.3364265 A 0.33642646,0.33642646 135 0 0 5,7.3364265 Z M 5,10.293039 V 10.68126 A 0.31873968,0.31873968 45 0 0 5.3187397,11 H 7.6901309 A 0.30986912,0.30986912 135 0 0 8,10.690131 V 10.339332 A 0.3393317,0.3393317 45 0 0 7.6606683,10 H 5.2930394 A 0.29303938,0.29303938 135 0 0 5,10.293039 Z"
     class="ColorScheme-Text"
     id="path4"
     inkscape:path-effect="#path-effect1017"
     inkscape:original-d="M 5,2 V 3 H 3 v 11 h 4 1 4 L 12.999468,13.983227 13,13 V 9 3 H 11 V 2 Z M 4,4 h 1 v 1 h 6 V 4 h 1 v 2 6 L 12.0033,12.978973 8,13 H 7 4 V 12 6 Z m 1,3 v 1 h 5 V 7 Z m 0,3 v 1 h 3 v -1 z"
     sodipodi:nodetypes="ccccccccccccccccccccccccccccccccccccccc" />
  <metadata
     id="metadata827">
    <rdf:RDF>
      <cc:Work
         rdf:about="">
        <cc:license
           rdf:resource="https://www.gnu.org/licenses/lgpl-3.0.txt" />
        <dc:title>ClipboardInspector Icon</dc:title>
        <dc:date>02/06/2022</dc:date>
        <dc:creator>
          <cc:Agent>
            <dc:title>Javier O. Cordero Pérez</dc:title>
          </cc:Agent>
        </dc:creator>
        <dc:rights>
          <cc:Agent>
            <dc:title>Javier O. Cordero Pérez</dc:title>
          </cc:Agent>
        </dc:rights>
        <dc:publisher>
          <cc:Agent>
            <dc:title>Javier O. Cordero Pérez</dc:title>
          </cc:Agent>
        </dc:publisher>
        <dc:relation>Derived from BreezeIcons's edit-paste.svg</dc:relation>
        <dc:subject>
          <rdf:Bag>
            <rdf:li>icon</rdf:li>
            <rdf:li>clipboard</rdf:li>
            <rdf:li>paste</rdf:li>
          </rdf:Bag>
        </dc:subject>
        <dc:contributor>
          <cc:Agent>
            <dc:title>
</dc:title>
          </cc:Agent>
        </dc:contributor>
      </cc:Work>
    </rdf:RDF>
  </metadata>
</svg>
